<?xml version="1.0" standalone="no"?>
<!DOCTYPE svg PUBLIC "-//W3C//DTD SVG 20010904//EN"
 "http://www.w3.org/TR/2001/REC-SVG-20010904/DTD/svg10.dtd">
<svg version="1.0" xmlns="http://www.w3.org/2000/svg"
 width="1024.000000pt" height="1024.000000pt" viewBox="0 0 1024.000000 1024.000000"
 preserveAspectRatio="xMidYMid meet">

<g transform="translate(0.000000,1024.000000) scale(0.100000,-0.100000)"
fill="#000000" stroke="none">
<path d="M7102 6639 c-80 -14 -153 -53 -231 -125 -216 -200 -271 -443 -154
-677 34 -69 241 -285 361 -378 l103 -79 27 19 c31 23 77 19 87 -7 9 -24 -43
-72 -79 -72 -27 0 -57 -27 -227 -199 -295 -299 -319 -340 -319 -539 1 -106 3
-123 29 -184 53 -124 162 -253 265 -313 158 -91 367 -90 507 4 23 16 122 104
220 197 l178 169 -42 37 c-23 21 -66 56 -95 79 -52 41 -54 42 -71 23 -10 -10
-65 -72 -122 -138 -84 -95 -119 -127 -179 -162 -97 -58 -140 -71 -178 -55 -69
29 -176 117 -219 181 -50 75 -63 113 -63 194 0 54 4 64 42 115 56 74 363 377
389 384 14 4 34 -7 67 -37 73 -65 445 -448 560 -576 57 -63 175 -183 263 -267
174 -166 222 -197 333 -216 261 -45 560 200 614 502 15 87 15 93 -6 176 -35
141 -73 197 -268 395 l-173 175 -83 -82 -83 -83 117 -110 c130 -123 204 -211
244 -289 23 -46 26 -63 22 -126 -3 -64 -8 -79 -41 -129 -77 -116 -204 -206
-289 -206 -65 0 -159 71 -318 241 -76 82 -210 225 -297 317 -344 365 -478 513
-478 531 0 20 409 425 425 419 13 -4 193 -200 258 -280 30 -38 57 -67 61 -67
3 1 46 44 96 97 l90 95 -145 136 c-80 75 -185 178 -235 230 -510 531 -577 598
-627 628 -94 57 -204 74 -336 52z m233 -264 c69 -46 209 -184 337 -333 l89
-103 -22 -27 c-40 -51 -351 -373 -371 -383 -17 -9 -32 1 -117 83 -53 51 -137
130 -187 175 -120 108 -142 142 -159 238 -11 63 -11 87 -1 126 16 60 80 144
165 216 l65 55 70 -4 c63 -3 78 -8 131 -43z"/>
<path d="M8471 6634 c-30 -8 -70 -24 -90 -37 -52 -32 -222 -185 -327 -297
l-92 -96 83 -83 c45 -46 87 -82 92 -80 6 2 46 47 90 99 159 190 301 299 369
285 123 -25 148 -38 219 -109 39 -39 86 -93 103 -121 31 -47 33 -53 27 -115
-12 -119 -33 -149 -308 -430 -137 -140 -290 -295 -341 -345 -50 -49 -144 -146
-208 -214 l-118 -123 81 -89 c45 -49 86 -89 91 -89 13 0 96 89 211 225 56 66
248 269 428 450 234 237 331 343 348 377 40 83 56 197 44 298 -28 218 -224
439 -440 495 -71 19 -191 18 -262 -1z"/>
<path d="M5601 5761 c-21 -21 -21 -25 -21 -551 0 -608 -11 -550 104 -550 53 0
67 4 78 19 14 19 15 19 67 -7 77 -37 202 -43 301 -13 90 28 141 72 172 149 21
53 23 72 23 257 0 188 -1 203 -23 250 -53 115 -123 150 -297 149 -88 0 -121
-5 -165 -22 -30 -12 -58 -22 -62 -22 -5 0 -8 74 -8 164 0 189 1 187 -90 194
-49 4 -61 1 -79 -17z m465 -474 c21 -11 39 -33 55 -69 21 -47 24 -67 23 -169
0 -102 -3 -122 -25 -165 -28 -57 -57 -74 -140 -81 -70 -7 -140 11 -180 45
l-29 24 0 184 0 185 26 24 c14 13 45 29 68 34 57 14 165 7 202 -12z"/>
<path d="M2090 5761 l-35 -6 0 -75 0 -75 88 -3 87 -3 0 75 c0 64 -3 77 -19 86
-21 11 -64 11 -121 1z"/>
<path d="M4461 5760 c-12 -7 -15 -47 -15 -218 -1 -162 -4 -213 -15 -225 -12
-15 -40 -17 -215 -17 -144 0 -205 3 -214 12 -9 9 -12 69 -12 208 0 107 -3 205
-6 218 -6 22 -10 23 -98 20 l-91 -3 -3 -534 c-1 -386 1 -538 9 -547 13 -15
145 -20 166 -6 9 6 14 66 17 221 3 165 7 216 18 222 7 5 106 9 220 9 195 0
208 -1 218 -19 6 -12 10 -101 10 -218 0 -142 3 -202 12 -211 7 -7 41 -12 83
-12 42 0 76 5 83 12 9 9 12 142 12 538 0 289 -4 530 -8 536 -9 14 -152 26
-171 14z"/>
<path d="M983 5728 c3 -18 62 -199 132 -403 70 -203 142 -418 161 -476 37
-115 58 -150 107 -176 68 -35 185 -14 219 39 44 71 344 984 336 1025 -3 16
-16 18 -101 21 -115 3 -98 24 -156 -193 -34 -127 -152 -493 -190 -588 -6 -16
-16 -27 -23 -25 -6 2 -26 44 -45 94 -40 107 -163 480 -194 584 -39 135 -33
130 -150 130 l-101 0 5 -32z"/>
<path d="M2513 5711 c-34 -9 -66 -20 -70 -25 -4 -4 -8 -58 -8 -119 l0 -112
-50 -5 -50 -5 -3 -64 c-3 -70 3 -81 50 -81 54 0 58 -20 58 -286 0 -232 1 -242
23 -284 34 -65 80 -85 194 -85 119 0 127 6 117 98 l-7 67 -53 0 c-41 0 -59 5
-74 20 -19 19 -20 33 -20 240 l0 220 56 0 c86 0 94 8 94 90 l0 70 -62 0 c-35
0 -68 4 -75 8 -8 5 -13 49 -15 137 -3 150 1 144 -105 116z"/>
<path d="M3146 5450 c-83 -22 -138 -59 -187 -124 -53 -69 -64 -119 -63 -266 2
-101 6 -136 23 -181 61 -160 204 -249 381 -236 99 6 175 44 251 123 80 85 94
128 94 289 -1 139 -17 208 -65 276 -79 110 -273 164 -434 119z m234 -168 c69
-51 99 -150 82 -276 -17 -132 -89 -205 -202 -206 -73 0 -119 30 -154 103 -23
46 -26 66 -27 154 -1 146 29 206 118 239 49 19 149 11 183 -14z"/>
<path d="M2062 5441 c-10 -6 -14 -86 -15 -380 -2 -435 -11 -404 108 -399 l70
3 3 380 c2 348 1 381 -15 393 -19 13 -131 16 -151 3z"/>
<path d="M4794 5436 c-3 -8 -4 -151 -2 -318 l3 -303 27 -55 c46 -94 123 -128
268 -118 49 4 81 13 113 31 43 26 45 26 50 7 4 -17 14 -20 72 -20 115 0 105
-36 105 395 0 429 9 395 -99 395 -99 0 -91 27 -91 -302 l0 -290 -29 -29 c-27
-26 -36 -29 -96 -29 -36 0 -75 5 -85 10 -42 22 -45 44 -50 338 -4 237 -7 284
-20 292 -25 16 -160 12 -166 -4z"/>
</g>
</svg>
